{"title":"Martin Garrix - Animals 1080p shadowCopy","uid":9417489,"size":106756094,"categoryP":"video","categoryS":"music_videos","magnet":"?xt=urn:btih:6a7f249f99476d4bbb9eb4c1afc9fe9f2876bc15&amp;dn=Martin+Garrix+-+Animals+1080p+shadowCopy&amp;tr=udp%3A%2F%2Ftracker.openbittorrent.com%3A80&amp;tr=udp%3A%2F%2Fopen.demonii.com%3A1337&amp;tr=udp%3A%2F%2Ftracker.coppersurfer.tk%3A6969&amp;tr=udp%3A%2F%2Fexodus.desync.com%3A6969","seeders":1,"leechers":1,"uploader":"tlbslicer","files":6,"time":1388487262,"description":"Screenshots:\n &lt;a href=&quot;\nhttp://s28.postimg.org/6sdhau7gd/vlcsnap_1.png&quot; rel=&quot;nofollow&quot; target=&quot;_NEW&quot;&gt;\nhttp://s28.postimg.org/6sdhau7gd/vlcsnap_1.png&lt;/a&gt;\n &lt;a href=&quot;\nhttp://s28.postimg.org/3rwmuaw59/vlcsnap_2.png&quot; rel=&quot;nofollow&quot; target=&quot;_NEW&quot;&gt;\nhttp://s28.postimg.org/3rwmuaw59/vlcsnap_2.png&lt;/a&gt;\n &lt;a href=&quot;\nhttp://s28.postimg.org/fxh8qylh9/vlcsnap_3.png&quot; rel=&quot;nofollow&quot; target=&quot;_NEW&quot;&gt;\nhttp://s28.postimg.org/fxh8qylh9/vlcsnap_3.png&lt;/a&gt;\n\n\nFormat                                   : MPEG-4\nFormat profile                           : Base Media\nCodec ID                                 : isom\nFile size                                : 98.2 MiB\nDuration                                 : 2mn 56s\nOverall bit rate mode                    : Variable\nOverall bit rate                         : 4 662 Kbps\nWriting application                      : Lavf54.29.104\n\nVideo\nID                                       : 1\nFormat                                   : AVC\nFormat/Info                              : Advanced Video Codec\nFormat profile                           : &lt;a class=&quot;__cf_email__&quot; href=&quot;/cdn-cgi/l/email-protection&quot; data-cfemail=&quot;6e230f07002e225a405e&quot;&gt;[email&amp;#160;protected]&lt;/a&gt;&lt;script cf-hash='f9e31' type=&quot;text/javascript&quot;&gt;\n/* &lt;![CDATA[ */!function(){try{var t=&quot;currentScript&quot;in document?document.currentScript:function(){for(var t=document.getElementsByTagName(&quot;script&quot;),e=t.length;e--;)if(t[e].getAttribute(&quot;cf-hash&quot;))return t[e]}();if(t&amp;&amp;t.previousSibling){var e,r,n,i,c=t.previousSibling,a=c.getAttribute(&quot;data-cfemail&quot;);if(a){for(e=&quot;&quot;,r=parseInt(a.substr(0,2),16),n=2;a.length-n;n+=2)i=parseInt(a.substr(n,2),16)^r,e+=String.fromCharCode(i);e=document.createTextNode(e),c.parentNode.replaceChild(e,c)}}}catch(u){}}();/* ]]&gt; */&lt;/script&gt;\nFormat settings, CABAC                   : Yes\nFormat settings, ReFrames                : 4 frames\nCodec ID                                 : avc1\nCodec ID/Info                            : Advanced Video Coding\nDuration                                 : 2mn 56s\nBit rate                                 : 4 529 Kbps\nWidth                                    : 1 920 pixels\nHeight                                   : 1 088 pixels\nOriginal height                          : 1 080 pixels\nDisplay aspect ratio                     : 16:9\nOriginal display aspect ratio            : 16:9\nFrame rate mode                          : Variable\nFrame rate                               : 47.288 fps\nOriginal frame rate                      : 25.000 fps\nMinimum frame rate                       : 2.941 fps\nMaximum frame rate                       : 50.059 fps\nColor space                              : YUV\nChroma subsampling                       : 4:2:0\nBit depth                                : 8 bits\nScan type                                : MBAFF\nScan order                               : Top Field First\nBits/(Pixel*Frame)                       : 0.046\nStream size                              : 95.4 MiB (97%)\n\nAudio\nID                                       : 2\nFormat                                   : AAC\nFormat/Info                              : Advanced Audio Codec\nFormat profile                           : HE-AAC / LC\nCodec ID                                 : 40\nDuration                                 : 2mn 56s\nBit rate mode                            : Variable\nBit rate                                 : 127 Kbps\nMaximum bit rate                         : 128 Kbps\nChannel(s)                               : 2 channels\nChannel positions                        : Front: L R\nSampling rate                            : 48.0 KHz / 24.0 KHz\nCompression mode                         : Lossy\nStream size                              : 2.67 MiB (3%)","torrent":{"xt":"urn:btih:6a7f249f99476d4bbb9eb4c1afc9fe9f2876bc15","amp;dn":"Martin+Garrix+-+Animals+1080p+shadowCopy","amp;tr":["udp%3A%2F%2Ftracker.openbittorrent.com%3A80","udp%3A%2F%2Fopen.demonii.com%3A1337","udp%3A%2F%2Ftracker.coppersurfer.tk%3A6969","udp%3A%2F%2Fexodus.desync.com%3A6969"],"infoHash":"6a7f249f99476d4bbb9eb4c1afc9fe9f2876bc15","infoHashBuffer":{"type":"Buffer","data":[106,127,36,159,153,71,109,75,187,158,180,193,175,201,254,159,40,118,188,21]},"announce":[],"urlList":[]}}